#define max_width 10
#define max_height 10
static unsigned char max_bits[] = {
   0xcf, 0x03, 0x03, 0x03, 0x85, 0x02, 0x49, 0x02, 0x00, 0x00, 0x00, 0x00,
   0x49, 0x02, 0x85, 0x02, 0x03, 0x03, 0xcf, 0x03 };
