#define max_toggled_width 10
#define max_toggled_height 10
static unsigned char max_toggled_bits[] = {
   0x49, 0x02, 0x4a, 0x01, 0xcc, 0x00, 0xcf, 0x03, 0x00, 0x00, 0x00, 0x00,
   0xcf, 0x03, 0xcc, 0x00, 0x4a, 0x01, 0x49, 0x02 };
