/* XPM */
static char * close_prelight_xpm[] = {
"26 26 3 1",
" 	c None",
".	c #D4D5D6",
"+	c #FF0000",
"..........................",
"..........................",
"..........................",
"..........................",
"..........................",
".....+..............+.....",
"......+............+......",
".......+..........+.......",
"........+........+........",
".........+......+.........",
"..........+....+..........",
"...........+..+...........",
"............++............",
"............++............",
"...........+..+...........",
"..........+....+..........",
".........+......+.........",
"........+........+........",
".......+..........+.......",
"......+............+......",
".....+..............+.....",
"..........................",
"..........................",
"..........................",
"..........................",
".........................."};
