/* XPM */
static char * maximize_pressed_xpm[] = {
"26 26 3 1",
" 	c None",
".	c #B1B2B3",
"+	c #008000",
"..........................",
"..........................",
"..........................",
"..........................",
"..........................",
".....++++........++++.....",
".....++............++.....",
".....+.+..........+.+.....",
".....+..+........+..+.....",
".........+......+.........",
"..........................",
"..........................",
"..........................",
"..........................",
"..........................",
"..........................",
".........+......+.........",
".....+..+........+..+.....",
".....+.+..........+.+.....",
".....++............++.....",
".....++++........++++.....",
"..........................",
"..........................",
"..........................",
"..........................",
".........................."};
