/* XPM */
static char * maximize_toggled_pressed_xpm[] = {
"26 26 4 1",
" 	c None",
".	c #B1B2B3",
"+	c #0000BF",
"@	c #0000CC",
"..........................",
"..........................",
"..........................",
"..........................",
"..........................",
".....+..............@.....",
"......@..@......@..@......",
".......@.@......@.@.......",
"........@@......@@........",
"......@@@@......@@@@......",
"..........................",
"..........................",
"..........................",
"..........................",
"..........................",
"..........................",
"......@@@@......@@@@......",
"........@@......@@........",
".......@.@......@.@.......",
"......@..@......@..@......",
".....@..............@.....",
"..........................",
"..........................",
"..........................",
"..........................",
".........................."};
