/* XPM */
static char * maximize_toggled_prelight_xpm[] = {
"26 26 4 1",
" 	c None",
".	c #D4D5D6",
"+	c #0000CC",
"@	c #0000BF",
"..........................",
"..........................",
"..........................",
"..........................",
"..........................",
".....+..............+.....",
"......+..+......+..+......",
".......+.+......+.+.......",
"........++......++........",
"......++++......++++......",
"..........................",
"..........................",
"..........................",
"..........................",
"..........................",
"..........................",
"......++++......++++......",
"........++......++........",
".......@.+......+.+.......",
"......+..+......+..+......",
".....+..............+.....",
"..........................",
"..........................",
"..........................",
"..........................",
".........................."};
